<?xml version='1.0' encoding='utf-8'?>
<svg width="239.000129mm" height="351.957743mm" viewBox="1.880001 -353.837745 239.000129 351.957743" version="1.1" xmlns="http://www.w3.org/2000/svg">
  <g transform="scale(1,-1)" stroke-linecap="round">
    <g fill="none" stroke="rgb(255,0,0)" stroke-width="1.0" id="layer1">
      <line x1="26.380014" y1="110.38006" x2="216.380117" y2="110.38006" />
      <line x1="216.380117" y1="110.38006" x2="216.380117" y2="300.380162" />
      <line x1="216.380117" y1="300.380162" x2="192.935104" y2="300.380162" />
      <line x1="192.935104" y1="300.380162" x2="172.830093" y2="300.380162" />
      <line x1="172.830093" y1="300.380162" x2="169.930092" y2="300.380162" />
      <line x1="169.930092" y1="300.380162" x2="72.830039" y2="300.380162" />
      <line x1="72.830039" y1="300.380162" x2="69.930038" y2="300.380162" />
      <line x1="69.930038" y1="300.380162" x2="49.825027" y2="300.380162" />
      <line x1="49.825027" y1="300.380162" x2="26.380014" y2="300.380162" />
      <line x1="26.380014" y1="300.380162" x2="26.380014" y2="110.38006" />
      <path d="M 177.380096,205.380111 A 56.0000305,56.00003049999841 0.0 0,0 65.380035,205.380111 A 56.0000305,56.00003049999841 0.0 0,0 177.380096,205.380111" />
      <line x1="159.130086" y1="142.930077" x2="162.030087" y2="142.930077" />
      <line x1="162.030087" y1="142.930077" x2="162.030087" y2="152.930083" />
      <line x1="162.030087" y1="152.930083" x2="159.130086" y2="152.930083" />
      <line x1="159.130086" y1="152.930083" x2="159.130086" y2="142.930077" />
      <line x1="80.730043" y1="257.830139" x2="83.630045" y2="257.830139" />
      <line x1="83.630045" y1="257.830139" x2="83.630045" y2="267.830145" />
      <line x1="83.630045" y1="267.830145" x2="80.730043" y2="267.830145" />
      <line x1="80.730043" y1="267.830145" x2="80.730043" y2="257.830139" />
      <line x1="159.130086" y1="257.830139" x2="162.030087" y2="257.830139" />
      <line x1="162.030087" y1="257.830139" x2="162.030087" y2="267.830145" />
      <line x1="162.030087" y1="267.830145" x2="159.130086" y2="267.830145" />
      <line x1="159.130086" y1="267.830145" x2="159.130086" y2="257.830139" />
      <line x1="80.730043" y1="142.930077" x2="83.630045" y2="142.930077" />
      <line x1="83.630045" y1="142.930077" x2="83.630045" y2="152.930083" />
      <line x1="83.630045" y1="152.930083" x2="80.730043" y2="152.930083" />
      <line x1="80.730043" y1="152.930083" x2="80.730043" y2="142.930077" />
      <line x1="2.380001" y1="110.38006" x2="26.380014" y2="110.38006" />
      <line x1="216.380117" y1="110.38006" x2="240.38013" y2="110.38006" />
      <line x1="240.38013" y1="110.38006" x2="240.38013" y2="2.380001" />
      <line x1="240.38013" y1="2.380001" x2="2.380001" y2="2.380001" />
      <line x1="2.380001" y1="2.380001" x2="2.380001" y2="110.38006" />
      <line x1="30.380016" y1="82.380045" x2="212.380115" y2="82.380045" />
      <line x1="212.380115" y1="82.380045" x2="212.380115" y2="30.380016" />
      <line x1="212.380115" y1="30.380016" x2="30.380016" y2="30.380016" />
      <line x1="30.380016" y1="30.380016" x2="30.380016" y2="82.380045" />
      <line x1="169.930092" y1="101.380055" x2="172.830093" y2="101.380055" />
      <line x1="172.830093" y1="101.380055" x2="172.830093" y2="91.380049" />
      <line x1="172.830093" y1="91.380049" x2="169.930092" y2="91.380049" />
      <line x1="169.930092" y1="91.380049" x2="169.930092" y2="101.380055" />
      <line x1="69.930038" y1="21.380012" x2="72.830039" y2="21.380012" />
      <line x1="72.830039" y1="21.380012" x2="72.830039" y2="11.380006" />
      <line x1="72.830039" y1="11.380006" x2="69.930038" y2="11.380006" />
      <line x1="69.930038" y1="11.380006" x2="69.930038" y2="21.380012" />
      <line x1="69.930038" y1="101.380055" x2="72.830039" y2="101.380055" />
      <line x1="72.830039" y1="101.380055" x2="72.830039" y2="91.380049" />
      <line x1="72.830039" y1="91.380049" x2="69.930038" y2="91.380049" />
      <line x1="69.930038" y1="91.380049" x2="69.930038" y2="101.380055" />
      <line x1="169.930092" y1="21.380012" x2="172.830093" y2="21.380012" />
      <line x1="172.830093" y1="21.380012" x2="172.830093" y2="11.380006" />
      <line x1="172.830093" y1="11.380006" x2="169.930092" y2="11.380006" />
      <line x1="169.930092" y1="11.380006" x2="169.930092" y2="21.380012" />
      <line x1="71.380038" y1="353.337745" x2="49.825027" y2="300.380162" />
      <line x1="69.930038" y1="300.380162" x2="69.930038" y2="307.880166" />
      <line x1="69.930038" y1="307.880166" x2="72.830039" y2="307.880166" />
      <line x1="72.830039" y1="307.880166" x2="72.830039" y2="300.380162" />
      <line x1="169.930092" y1="300.380162" x2="169.930092" y2="307.880166" />
      <line x1="169.930092" y1="307.880166" x2="172.830093" y2="307.880166" />
      <line x1="172.830093" y1="307.880166" x2="172.830093" y2="300.380162" />
      <line x1="192.935104" y1="300.380162" x2="171.380092" y2="353.337745" />
      <line x1="162.030087" y1="353.337745" x2="171.380092" y2="353.337745" />
      <line x1="162.030087" y1="353.337745" x2="162.030087" y2="345.837741" />
      <line x1="162.030087" y1="345.837741" x2="159.130086" y2="345.837741" />
      <line x1="159.130086" y1="345.837741" x2="159.130086" y2="353.337745" />
      <line x1="83.630045" y1="353.337745" x2="159.130086" y2="353.337745" />
      <line x1="83.630045" y1="353.337745" x2="83.630045" y2="345.837741" />
      <line x1="83.630045" y1="345.837741" x2="80.730043" y2="345.837741" />
      <line x1="80.730043" y1="345.837741" x2="80.730043" y2="353.337745" />
      <line x1="71.380038" y1="353.337745" x2="80.730043" y2="353.337745" />
    </g>
  </g>
</svg>