<?xml version='1.0' encoding='utf-8'?>
<svg width="239.000129mm" height="351.957743mm" viewBox="1.880001 -353.837745 239.000129 351.957743" version="1.1" xmlns="http://www.w3.org/2000/svg">
  <g transform="scale(1,-1)" stroke-linecap="round">
    <g fill="none" stroke="rgb(255,0,0)" stroke-width="1.0" id="layer1">
      <path d="M 216.380117,110.38006 L 240.38013,110.38006 L 240.38013,2.380001 L 2.380001,2.380001 L 2.380001,110.38006 L 26.380014,110.38006 L 216.380117,110.38006 L 216.380117,300.380162 L 192.935104,300.380162 L 171.380092,353.337745 L 162.030087,353.337745 L 162.030087,345.837741 L 159.130086,345.837741 L 159.130086,353.337745 L 83.630045,353.337745 L 83.630045,345.837741 L 80.730043,345.837741 L 80.730043,353.337745 L 71.380038,353.337745 L 49.825027,300.380162 L 69.930038,300.380162 L 69.930038,307.880166 L 72.830039,307.880166 L 72.830039,300.380162 L 169.930092,300.380162 L 169.930092,307.880166 L 172.830093,307.880166 L 172.830093,300.380162 L 192.935104,300.380162" />
      <line x1="172.830093" y1="300.380162" x2="169.930092" y2="300.380162" />
      <line x1="72.830039" y1="300.380162" x2="69.930038" y2="300.380162" />
      <path d="M 49.825027,300.380162 L 26.380014,300.380162 L 26.380014,110.38006" />
      <path d="M 177.380096,205.380111 A 56.0000305,56.00003049999841 0.0 0,0 65.380035,205.380111 A 56.0000305,56.00003049999841 0.0 0,0 177.380096,205.380111" />
      <path d="M 159.130086,142.930077 L 162.030087,142.930077 L 162.030087,152.930083 L 159.130086,152.930083 L 159.130086,142.930077" />
      <path d="M 80.730043,257.830139 L 83.630045,257.830139 L 83.630045,267.830145 L 80.730043,267.830145 L 80.730043,257.830139" />
      <path d="M 159.130086,257.830139 L 162.030087,257.830139 L 162.030087,267.830145 L 159.130086,267.830145 L 159.130086,257.830139" />
      <path d="M 80.730043,142.930077 L 83.630045,142.930077 L 83.630045,152.930083 L 80.730043,152.930083 L 80.730043,142.930077" />
      <path d="M 30.380016,82.380045 L 212.380115,82.380045 L 212.380115,30.380016 L 30.380016,30.380016 L 30.380016,82.380045" />
      <path d="M 169.930092,101.380055 L 172.830093,101.380055 L 172.830093,91.380049 L 169.930092,91.380049 L 169.930092,101.380055" />
      <path d="M 69.930038,21.380012 L 72.830039,21.380012 L 72.830039,11.380006 L 69.930038,11.380006 L 69.930038,21.380012" />
      <path d="M 69.930038,101.380055 L 72.830039,101.380055 L 72.830039,91.380049 L 69.930038,91.380049 L 69.930038,101.380055" />
      <path d="M 169.930092,21.380012 L 172.830093,21.380012 L 172.830093,11.380006 L 169.930092,11.380006 L 169.930092,21.380012" />
    </g>
  </g>
</svg>