<?xml version="1.0" encoding="UTF-8" standalone="no"?>
<!-- Created with Inkscape (http://www.inkscape.org/) -->

<svg
   width="220mm"
   height="70mm"
   viewBox="0 0 220 70"
   version="1.1"
   id="svg1"
   inkscape:export-filename="bitmap.webp"
   inkscape:export-xdpi="96"
   inkscape:export-ydpi="96"
   inkscape:version="1.3 (0e150ed6c4, 2023-07-21)"
   sodipodi:docname="readme_img.svg"
   xmlns:inkscape="http://www.inkscape.org/namespaces/inkscape"
   xmlns:sodipodi="http://sodipodi.sourceforge.net/DTD/sodipodi-0.dtd"
   xmlns="http://www.w3.org/2000/svg"
   xmlns:svg="http://www.w3.org/2000/svg">
  <sodipodi:namedview
     id="namedview1"
     pagecolor="#ffffff"
     bordercolor="#000000"
     borderopacity="0.25"
     inkscape:showpageshadow="2"
     inkscape:pageopacity="0.0"
     inkscape:pagecheckerboard="0"
     inkscape:deskcolor="#d1d1d1"
     inkscape:document-units="mm"
     inkscape:zoom="0.64126689"
     inkscape:cx="346.96942"
     inkscape:cy="108.37921"
     inkscape:window-width="1360"
     inkscape:window-height="705"
     inkscape:window-x="-8"
     inkscape:window-y="-8"
     inkscape:window-maximized="1"
     inkscape:current-layer="layer1"
     inkscape:export-bgcolor="#ffffffff" />
  <defs
     id="defs1">
    <marker
       style="overflow:visible"
       id="marker12"
       refX="0"
       refY="0"
       orient="auto"
       inkscape:stockid="Dot"
       markerWidth="0.5"
       markerHeight="0.5"
       viewBox="0 0 1 1"
       inkscape:isstock="true"
       inkscape:collect="always"
       preserveAspectRatio="xMidYMid">
      <path
         transform="scale(0.5)"
         style="fill:context-stroke;fill-rule:evenodd;stroke:none"
         d="M 5,0 C 5,2.76 2.76,5 0,5 -2.76,5 -5,2.76 -5,0 c 0,-2.76 2.3,-5 5,-5 2.76,0 5,2.24 5,5 z"
         sodipodi:nodetypes="sssss"
         id="path12" />
    </marker>
    <marker
       style="overflow:visible"
       id="marker11"
       refX="0"
       refY="0"
       orient="auto"
       inkscape:stockid="Dot"
       markerWidth="0.5"
       markerHeight="0.5"
       viewBox="0 0 1 1"
       inkscape:isstock="true"
       inkscape:collect="always"
       preserveAspectRatio="xMidYMid">
      <path
         transform="scale(0.5)"
         style="fill:context-stroke;fill-rule:evenodd;stroke:none"
         d="M 5,0 C 5,2.76 2.76,5 0,5 -2.76,5 -5,2.76 -5,0 c 0,-2.76 2.3,-5 5,-5 2.76,0 5,2.24 5,5 z"
         sodipodi:nodetypes="sssss"
         id="path11" />
    </marker>
    <marker
       style="overflow:visible"
       id="marker8"
       refX="0"
       refY="0"
       orient="auto"
       inkscape:stockid="Dot"
       markerWidth="0.5"
       markerHeight="0.5"
       viewBox="0 0 1 1"
       inkscape:isstock="true"
       inkscape:collect="always"
       preserveAspectRatio="xMidYMid">
      <path
         transform="scale(0.5)"
         style="fill:context-stroke;fill-rule:evenodd;stroke:none"
         d="M 5,0 C 5,2.76 2.76,5 0,5 -2.76,5 -5,2.76 -5,0 c 0,-2.76 2.3,-5 5,-5 2.76,0 5,2.24 5,5 z"
         sodipodi:nodetypes="sssss"
         id="path8" />
    </marker>
    <marker
       style="overflow:visible"
       id="marker7"
       refX="0"
       refY="0"
       orient="auto"
       inkscape:stockid="Dot"
       markerWidth="0.5"
       markerHeight="0.5"
       viewBox="0 0 1 1"
       inkscape:isstock="true"
       inkscape:collect="always"
       preserveAspectRatio="xMidYMid">
      <path
         transform="scale(0.5)"
         style="fill:context-stroke;fill-rule:evenodd;stroke:none"
         d="M 5,0 C 5,2.76 2.76,5 0,5 -2.76,5 -5,2.76 -5,0 c 0,-2.76 2.3,-5 5,-5 2.76,0 5,2.24 5,5 z"
         sodipodi:nodetypes="sssss"
         id="path7" />
    </marker>
    <marker
       style="overflow:visible"
       id="marker6"
       refX="0"
       refY="0"
       orient="auto"
       inkscape:stockid="Dot"
       markerWidth="0.5"
       markerHeight="0.5"
       viewBox="0 0 1 1"
       inkscape:isstock="true"
       inkscape:collect="always"
       preserveAspectRatio="xMidYMid">
      <path
         transform="scale(0.5)"
         style="fill:context-stroke;fill-rule:evenodd;stroke:none"
         d="M 5,0 C 5,2.76 2.76,5 0,5 -2.76,5 -5,2.76 -5,0 c 0,-2.76 2.3,-5 5,-5 2.76,0 5,2.24 5,5 z"
         sodipodi:nodetypes="sssss"
         id="path6" />
    </marker>
    <marker
       style="overflow:visible"
       id="Dot"
       refX="0"
       refY="0"
       orient="auto"
       inkscape:stockid="Dot"
       markerWidth="0.5"
       markerHeight="0.5"
       viewBox="0 0 1 1"
       inkscape:isstock="true"
       inkscape:collect="always"
       preserveAspectRatio="xMidYMid">
      <path
         transform="scale(0.5)"
         style="fill:context-stroke;fill-rule:evenodd;stroke:none"
         d="M 5,0 C 5,2.76 2.76,5 0,5 -2.76,5 -5,2.76 -5,0 c 0,-2.76 2.3,-5 5,-5 2.76,0 5,2.24 5,5 z"
         sodipodi:nodetypes="sssss"
         id="path17" />
    </marker>
    <marker
       style="overflow:visible"
       id="Triangle"
       refX="0"
       refY="0"
       orient="auto-start-reverse"
       inkscape:stockid="Triangle arrow"
       markerWidth="0.5"
       markerHeight="0.5"
       viewBox="0 0 1 1"
       inkscape:isstock="true"
       inkscape:collect="always"
       preserveAspectRatio="xMidYMid">
      <path
         transform="scale(0.5)"
         style="fill:context-stroke;fill-rule:evenodd;stroke:context-stroke;stroke-width:1pt"
         d="M 5.77,0 -2.88,5 V -5 Z"
         id="path135" />
    </marker>
  </defs>
  <g
     inkscape:label="Layer 1"
     inkscape:groupmode="layer"
     id="layer1">
    <path
       style="fill:none;stroke:#ff0000;stroke-width:1;stroke-opacity:0.66;marker-start:url(#marker11);marker-end:url(#marker12)"
       d="M 10.70022,45.784419 33.018984,23.465658"
       id="path4" />
    <path
       style="fill:none;stroke:#ff0000;stroke-width:1;stroke-opacity:0.66;marker-start:url(#marker7);marker-end:url(#marker8)"
       d="M 94.805877,45.784419 117.12464,23.465658"
       id="path2" />
    <path
       style="fill:none;stroke:#0000ff;stroke-width:1;stroke-opacity:0.66;marker-start:url(#marker12);marker-end:url(#marker12)"
       d="M 33.018984,36.156718 55.337747,13.837957"
       id="path5" />
    <path
       style="fill:none;stroke:#0000ff;stroke-width:1;stroke-opacity:0.66;marker-start:url(#Dot);marker-end:url(#marker6)"
       d="M 104.43357,36.156718 126.75234,13.837957"
       id="path1" />
    <path
       style="fill:#ff0000;stroke:#000000;stroke-width:3;stroke-miterlimit:4;marker-end:url(#Triangle)"
       d="M 55.337747,28.690589 H 74.523403"
       id="path9" />
    <path
       style="fill:#ff0000;stroke:#000000;stroke-width:3;stroke-miterlimit:4;marker-end:url(#Triangle)"
       d="m 143.20021,28.690589 h 19.18565"
       id="path3" />
    <path
       style="fill:#ff0000;stroke:#1a1a1a;stroke-width:1;stroke-miterlimit:4;stroke-opacity:1;marker-start:url(#marker12);marker-end:url(#marker12)"
       d="M 174.07126,45.784419 206.1636,13.692082"
       id="path10" />
    <text
       xml:space="preserve"
       style="font-size:5.19907px;font-family:'Century Gothic';-inkscape-font-specification:'Century Gothic';fill:#000000;stroke:none;stroke-width:0.409376;stroke-miterlimit:4;stroke-opacity:0.66"
       x="142.80673"
       y="19.634666"
       id="text15"><tspan
         sodipodi:role="line"
         style="fill:#000000;stroke:none;stroke-width:0.409376"
         x="142.80673"
         y="19.634666"
         id="tspan15">killOverlap</tspan></text>
    <text
       xml:space="preserve"
       style="font-size:5.19907px;font-family:'Century Gothic';-inkscape-font-specification:'Century Gothic';fill:#000000;stroke:none;stroke-width:0.409376;stroke-miterlimit:4;stroke-opacity:0.66"
       x="95.354744"
       y="58.219902"
       id="text12"><tspan
         sodipodi:role="line"
         style="fill:#000000;stroke:none;stroke-width:0.409376"
         x="95.354744"
         y="58.219902"
         id="tspan14">you are here</tspan></text>
  </g>
</svg>
